<svg xmlns="http://www.w3.org/2000/svg" xmlns:xlink="http://www.w3.org/1999/xlink" id="visual" viewBox="0 0 960 540" width="960" height="540" version="1.1"><rect x="0" y="0" width="960" height="540" fill="#001220"/><path d="M0 379L20 386.3C40 393.7 80 408.3 120 413.7C160 419 200 415 240 413.5C280 412 320 413 360 409.2C400 405.3 440 396.7 480 395.3C520 394 560 400 600 405.2C640 410.3 680 414.7 720 412.5C760 410.3 800 401.7 840 394.5C880 387.3 920 381.7 940 378.8L960 376L960 541L940 541C920 541 880 541 840 541C800 541 760 541 720 541C680 541 640 541 600 541C560 541 520 541 480 541C440 541 400 541 360 541C320 541 280 541 240 541C200 541 160 541 120 541C80 541 40 541 20 541L0 541Z" fill="#0e1424"/><path d="M0 439L20 434C40 429 80 419 120 414C160 409 200 409 240 414.2C280 419.3 320 429.7 360 429.5C400 429.3 440 418.7 480 415.8C520 413 560 418 600 421.8C640 425.7 680 428.3 720 429.7C760 431 800 431 840 430.2C880 429.3 920 427.7 940 426.8L960 426L960 541L940 541C920 541 880 541 840 541C800 541 760 541 720 541C680 541 640 541 600 541C560 541 520 541 480 541C440 541 400 541 360 541C320 541 280 541 240 541C200 541 160 541 120 541C80 541 40 541 20 541L0 541Z" fill="#453d4b"/><path d="M0 463L20 463C40 463 80 463 120 459.8C160 456.7 200 450.3 240 446C280 441.7 320 439.3 360 439.7C400 440 440 443 480 442.3C520 441.7 560 437.3 600 440.3C640 443.3 680 453.7 720 454C760 454.3 800 444.7 840 440.2C880 435.7 920 436.3 940 436.7L960 437L960 541L940 541C920 541 880 541 840 541C800 541 760 541 720 541C680 541 640 541 600 541C560 541 520 541 480 541C440 541 400 541 360 541C320 541 280 541 240 541C200 541 160 541 120 541C80 541 40 541 20 541L0 541Z" fill="#7c6c75"/><path d="M0 477L20 476C40 475 80 473 120 474.2C160 475.3 200 479.7 240 480C280 480.3 320 476.7 360 475.5C400 474.3 440 475.7 480 473.3C520 471 560 465 600 466.7C640 468.3 680 477.7 720 481.7C760 485.7 800 484.3 840 483.5C880 482.7 920 482.3 940 482.2L960 482L960 541L940 541C920 541 880 541 840 541C800 541 760 541 720 541C680 541 640 541 600 541C560 541 520 541 480 541C440 541 400 541 360 541C320 541 280 541 240 541C200 541 160 541 120 541C80 541 40 541 20 541L0 541Z" fill="#b2a1a3"/><path d="M0 491L20 494.5C40 498 80 505 120 509.3C160 513.7 200 515.3 240 512.5C280 509.7 320 502.3 360 498C400 493.7 440 492.3 480 492.3C520 492.3 560 493.7 600 493.7C640 493.7 680 492.3 720 493.8C760 495.3 800 499.7 840 502.7C880 505.7 920 507.3 940 508.2L960 509L960 541L940 541C920 541 880 541 840 541C800 541 760 541 720 541C680 541 640 541 600 541C560 541 520 541 480 541C440 541 400 541 360 541C320 541 280 541 240 541C200 541 160 541 120 541C80 541 40 541 20 541L0 541Z" fill="#e8dad7"/></svg>