<svg id="visual" viewBox="0 0 960 540" width="960" height="540" xmlns="http://www.w3.org/2000/svg" xmlns:xlink="http://www.w3.org/1999/xlink" version="1.1"><rect x="0" y="0" width="960" height="540" fill="#ad7c4c"></rect><path d="M0 338L22.8 338.8C45.7 339.7 91.3 341.3 137 344.2C182.7 347 228.3 351 274 355.7C319.7 360.3 365.3 365.7 411.2 365.2C457 364.7 503 358.3 548.8 351.7C594.7 345 640.3 338 686 334.7C731.7 331.3 777.3 331.7 823 339.2C868.7 346.7 914.3 361.3 937.2 368.7L960 376L960 541L937.2 541C914.3 541 868.7 541 823 541C777.3 541 731.7 541 686 541C640.3 541 594.7 541 548.8 541C503 541 457 541 411.2 541C365.3 541 319.7 541 274 541C228.3 541 182.7 541 137 541C91.3 541 45.7 541 22.8 541L0 541Z" fill="#6d4429"></path><path d="M0 366L22.8 372.2C45.7 378.3 91.3 390.7 137 397.8C182.7 405 228.3 407 274 407C319.7 407 365.3 405 411.2 406.3C457 407.7 503 412.3 548.8 414.7C594.7 417 640.3 417 686 407.3C731.7 397.7 777.3 378.3 823 375.8C868.7 373.3 914.3 387.7 937.2 394.8L960 402L960 541L937.2 541C914.3 541 868.7 541 823 541C777.3 541 731.7 541 686 541C640.3 541 594.7 541 548.8 541C503 541 457 541 411.2 541C365.3 541 319.7 541 274 541C228.3 541 182.7 541 137 541C91.3 541 45.7 541 22.8 541L0 541Z" fill="#563324"></path><path d="M0 452L22.8 445.8C45.7 439.7 91.3 427.3 137 428.2C182.7 429 228.3 443 274 442.8C319.7 442.7 365.3 428.3 411.2 426.3C457 424.3 503 434.7 548.8 439.5C594.7 444.3 640.3 443.7 686 438.5C731.7 433.3 777.3 423.7 823 418.7C868.7 413.7 914.3 413.3 937.2 413.2L960 413L960 541L937.2 541C914.3 541 868.7 541 823 541C777.3 541 731.7 541 686 541C640.3 541 594.7 541 548.8 541C503 541 457 541 411.2 541C365.3 541 319.7 541 274 541C228.3 541 182.7 541 137 541C91.3 541 45.7 541 22.8 541L0 541Z" fill="#3f241d"></path><path d="M0 480L22.8 476.8C45.7 473.7 91.3 467.3 137 459.5C182.7 451.7 228.3 442.3 274 441.2C319.7 440 365.3 447 411.2 455.7C457 464.3 503 474.7 548.8 471.7C594.7 468.7 640.3 452.3 686 446.7C731.7 441 777.3 446 823 453.2C868.7 460.3 914.3 469.7 937.2 474.3L960 479L960 541L937.2 541C914.3 541 868.7 541 823 541C777.3 541 731.7 541 686 541C640.3 541 594.7 541 548.8 541C503 541 457 541 411.2 541C365.3 541 319.7 541 274 541C228.3 541 182.7 541 137 541C91.3 541 45.7 541 22.8 541L0 541Z" fill="#281714"></path><path d="M0 498L22.8 497.8C45.7 497.7 91.3 497.3 137 497.7C182.7 498 228.3 499 274 497.2C319.7 495.3 365.3 490.7 411.2 488C457 485.3 503 484.7 548.8 487.8C594.7 491 640.3 498 686 497.2C731.7 496.3 777.3 487.7 823 484.2C868.7 480.7 914.3 482.3 937.2 483.2L960 484L960 541L937.2 541C914.3 541 868.7 541 823 541C777.3 541 731.7 541 686 541C640.3 541 594.7 541 548.8 541C503 541 457 541 411.2 541C365.3 541 319.7 541 274 541C228.3 541 182.7 541 137 541C91.3 541 45.7 541 22.8 541L0 541Z" fill="#110504"></path></svg>