<svg id="visual" viewBox="0 0 960 540" width="960" height="540" xmlns="http://www.w3.org/2000/svg" xmlns:xlink="http://www.w3.org/1999/xlink" version="1.1"><rect x="0" y="0" width="960" height="540" fill="#001220"></rect><path d="M0 156L20 152.8C40 149.7 80 143.3 120 141C160 138.7 200 140.3 240 147C280 153.7 320 165.3 360 163.5C400 161.7 440 146.3 480 146.2C520 146 560 161 600 167.3C640 173.7 680 171.3 720 168.3C760 165.3 800 161.7 840 157.8C880 154 920 150 940 148L960 146L960 0L940 0C920 0 880 0 840 0C800 0 760 0 720 0C680 0 640 0 600 0C560 0 520 0 480 0C440 0 400 0 360 0C320 0 280 0 240 0C200 0 160 0 120 0C80 0 40 0 20 0L0 0Z" fill="#ad7c4c"></path><path d="M0 112L20 112.8C40 113.7 80 115.3 120 118.8C160 122.3 200 127.7 240 125.7C280 123.7 320 114.3 360 110.5C400 106.7 440 108.3 480 108.3C520 108.3 560 106.7 600 108.3C640 110 680 115 720 120.5C760 126 800 132 840 132.2C880 132.3 920 126.7 940 123.8L960 121L960 0L940 0C920 0 880 0 840 0C800 0 760 0 720 0C680 0 640 0 600 0C560 0 520 0 480 0C440 0 400 0 360 0C320 0 280 0 240 0C200 0 160 0 120 0C80 0 40 0 20 0L0 0Z" fill="#7a5039"></path><path d="M0 73L20 73.8C40 74.7 80 76.3 120 75.8C160 75.3 200 72.7 240 73C280 73.3 320 76.7 360 78.3C400 80 440 80 480 77.5C520 75 560 70 600 71.3C640 72.7 680 80.3 720 79.8C760 79.3 800 70.7 840 69.7C880 68.7 920 75.3 940 78.7L960 82L960 0L940 0C920 0 880 0 840 0C800 0 760 0 720 0C680 0 640 0 600 0C560 0 520 0 480 0C440 0 400 0 360 0C320 0 280 0 240 0C200 0 160 0 120 0C80 0 40 0 20 0L0 0Z" fill="#442a24"></path><path d="M0 40L20 38.3C40 36.7 80 33.3 120 33.7C160 34 200 38 240 37.3C280 36.7 320 31.3 360 30.2C400 29 440 32 480 33C520 34 560 33 600 32.5C640 32 680 32 720 31.5C760 31 800 30 840 29.3C880 28.7 920 28.3 940 28.2L960 28L960 0L940 0C920 0 880 0 840 0C800 0 760 0 720 0C680 0 640 0 600 0C560 0 520 0 480 0C440 0 400 0 360 0C320 0 280 0 240 0C200 0 160 0 120 0C80 0 40 0 20 0L0 0Z" fill="#110504"></path></svg>